<svg width="31" height="30" viewBox="0 0 31 30" fill="none" xmlns="http://www.w3.org/2000/svg">
<path fill-rule="evenodd" clip-rule="evenodd" d="M15.4999 17.25C17.1354 17.25 18.7039 16.6179 19.8604 15.4926C21.0169 14.3674 21.6666 12.8413 21.6666 11.25C21.6666 9.6587 21.0169 8.13258 19.8604 7.00736C18.7039 5.88214 17.1354 5.25 15.4999 5.25C13.8644 5.25 12.2959 5.88214 11.1394 7.00736C9.98295 8.13258 9.33325 9.6587 9.33325 11.25C9.33325 12.8413 9.98295 14.3674 11.1394 15.4926C12.2959 16.6179 13.8644 17.25 15.4999 17.25ZM15.4999 15.75C16.1073 15.75 16.7087 15.6336 17.2698 15.4075C17.831 15.1813 18.3408 14.8498 18.7703 14.432C19.1998 14.0141 19.5404 13.518 19.7729 12.9721C20.0053 12.4261 20.1249 11.8409 20.1249 11.25C20.1249 10.6591 20.0053 10.0739 19.7729 9.52792C19.5404 8.98196 19.1998 8.48588 18.7703 8.06802C18.3408 7.65016 17.831 7.31869 17.2698 7.09254C16.7087 6.8664 16.1073 6.75 15.4999 6.75C14.2733 6.75 13.0969 7.22411 12.2295 8.06802C11.3622 8.91193 10.8749 10.0565 10.8749 11.25C10.8749 12.4435 11.3622 13.5881 12.2295 14.432C13.0969 15.2759 14.2733 15.75 15.4999 15.75Z" fill="black"/>
<path fill-rule="evenodd" clip-rule="evenodd" d="M30.9166 15C30.9166 23.2845 24.0145 30 15.4999 30C6.98529 30 0.083252 23.2845 0.083252 15C0.083252 6.7155 6.98529 0 15.4999 0C24.0145 0 30.9166 6.7155 30.9166 15ZM22.923 26.4075C20.7041 27.7788 18.1286 28.5047 15.4999 28.5C12.8084 28.5048 10.1743 27.7435 7.92186 26.31C7.73686 26.085 7.54929 25.8525 7.35915 25.6125C7.13862 25.3314 7.01966 24.9874 7.02075 24.6338C7.02075 23.826 7.61738 23.1488 8.41519 23.0355C13.6915 22.2855 17.3245 22.35 22.6078 23.0618C22.9902 23.1162 23.3395 23.3031 23.5915 23.5883C23.8435 23.8734 23.9811 24.2375 23.9791 24.6135C23.9791 24.9735 23.8519 25.323 23.6222 25.596C23.3853 25.8765 23.1522 26.147 22.923 26.4075ZM25.5092 24.3495C25.3859 22.9455 24.2905 21.774 22.819 21.576C17.4108 20.8478 13.6306 20.778 8.19242 21.5513C6.71242 21.7612 5.62169 22.9432 5.49219 24.351C3.0065 21.8393 1.62002 18.4868 1.62492 15C1.62492 7.54425 7.83706 1.5 15.4999 1.5C23.1628 1.5 29.3749 7.54425 29.3749 15C29.3798 18.4861 27.9939 21.8379 25.5092 24.3495Z" fill="black"/>
</svg>
