<svg width="117" height="105" viewBox="0 0 117 105" fill="none" xmlns="http://www.w3.org/2000/svg">
<path d="M59.1818 1.0257C59.1818 0.45922 58.7225 0 58.1561 0C57.5896 0 57.1304 0.45922 57.1304 1.0257V5.84426C57.1304 6.41074 57.5896 6.86996 58.1561 6.86996C58.7225 6.86996 59.1818 6.41074 59.1818 5.84426V1.0257Z" fill="#FF4D4F"/>
<path d="M48.1421 5.24561C47.7416 4.84505 47.0921 4.84505 46.6916 5.24561C46.291 5.64617 46.291 6.2956 46.6916 6.69616L50.0988 10.1034C50.4994 10.504 51.1488 10.504 51.5494 10.1034C51.9499 9.70284 51.9499 9.05341 51.5494 8.65285L48.1421 5.24561Z" fill="#FF4D4F"/>
<path d="M64.7503 8.65449C64.3497 9.05505 64.3497 9.70448 64.7503 10.105C65.1509 10.5056 65.8003 10.5056 66.2009 10.105L69.6081 6.6978C70.0087 6.29724 70.0087 5.64781 69.6081 5.24725C69.2075 4.84669 68.5581 4.84669 68.1575 5.24725L64.7503 8.65449Z" fill="#FF4D4F"/>
<path d="M26.5218 37.9655C33.3236 37.9655 38.8376 32.4516 38.8376 25.6498C38.8376 18.848 33.3236 13.334 26.5218 13.334C19.72 13.334 14.2061 18.848 14.2061 25.6498C14.2061 32.4516 19.72 37.9655 26.5218 37.9655Z" fill="#00ACE8"/>
<path d="M53.5591 20.0417C53.4552 19.3297 53.4552 18.6064 53.5591 17.8944C53.6597 16.7563 54.1316 15.6829 54.9021 14.8394C55.7608 14.0246 56.8851 13.5476 58.0677 13.4964C58.171 13.4964 58.3334 13.4964 58.5179 13.4964C57.507 13.4552 56.5063 13.7118 55.64 14.2343C54.4151 14.9722 53.8911 16.0791 53.2787 17.4C52.693 18.798 52.2601 20.2552 51.9873 21.7463C51.5258 23.5937 50.934 25.4061 50.2163 27.1699C49.2967 29.3154 48.0523 31.3064 46.5268 33.0732C44.9108 34.9623 39.6199 41.3821 33.0968 41.7215C32.4031 41.7584 27.6879 41.9355 25.2602 41.9355C24.6166 41.9342 23.9734 41.9712 23.3342 42.0462C22.4822 42.1429 21.6386 42.3032 20.8106 42.5259C18.6617 43.0226 16.5605 43.7066 14.5309 44.5699C11.4237 45.8758 8.63297 47.8335 6.34748 50.3108C4.05257 52.8345 2.99736 55.1958 1.63222 58.295C1.22816 59.1668 0.92846 60.0832 0.739345 61.0253C0.5467 61.9518 0.469861 62.8987 0.510592 63.8441V78.7795C0.692111 79.4582 1.00004 80.0966 1.41822 80.6611C1.82777 81.2061 2.32679 81.6777 2.89405 82.0558C3.46231 82.4597 4.11214 82.7342 4.79786 82.8601C5.4613 82.961 6.13877 82.9157 6.78284 82.7273C7.6388 82.4671 8.42043 82.0068 9.06299 81.3843C9.56116 80.9908 9.98158 80.5078 10.3027 79.9601C10.6064 79.4048 10.7876 78.7909 10.834 78.1596C10.834 71.7546 10.834 67.091 10.7897 66.1317C10.7897 65.9398 10.7897 65.2904 11.1439 65.0248C11.3276 64.9187 11.5369 64.8651 11.749 64.8698C12.0206 64.8339 12.2963 64.8911 12.5312 65.0322C12.7408 65.191 12.883 65.4228 12.9297 65.6815L13.0551 78.1375C13.1492 78.4968 13.3438 78.8219 13.6159 79.0746C13.8756 79.3172 14.1974 79.4833 14.5457 79.5543C16.5159 79.5543 40.3283 79.9011 41.1622 79.5026C41.4196 79.3823 41.641 79.1966 41.8041 78.964C41.9201 78.7864 41.9934 78.5843 42.0181 78.3736L42.1288 49.2925C44.046 48.7851 45.8749 47.9889 47.5525 46.9312C49.7659 45.4907 51.6926 43.6516 53.2344 41.5075C53.6034 41.0131 54.1937 40.1424 55.3817 38.3936C55.9573 37.5523 56.9018 36.1798 57.2634 35.6042C57.7512 34.8588 58.1757 34.0739 58.5326 33.2577C58.0677 32.2394 57.4922 30.83 56.4222 28.358C55.3522 25.8859 53.9649 22.7941 53.5591 20.0417Z" fill="#00ACE8"/>
<path d="M90.5135 37.9655C97.3153 37.9655 102.829 32.4516 102.829 25.6498C102.829 18.848 97.3153 13.334 90.5135 13.334C83.7117 13.334 78.1978 18.848 78.1978 25.6498C78.1978 32.4516 83.7117 37.9655 90.5135 37.9655Z" fill="#00ACE8"/>
<path d="M116.297 60.9884C116.105 60.059 115.805 59.1551 115.404 58.295C114.031 55.2327 112.983 52.8714 110.688 50.3477C108.403 47.8704 105.612 45.9127 102.505 44.6068C100.475 43.7435 98.3742 43.0595 96.2254 42.5628C95.3971 42.3408 94.5536 42.1805 93.7017 42.0831C93.0625 42.0083 92.4194 41.9713 91.7758 41.9724C89.348 41.9724 84.6328 41.7953 83.9391 41.7584C77.4455 41.419 72.1325 34.9992 70.5239 33.0658C68.9984 31.2991 67.7539 29.308 66.8343 27.1625C66.1167 25.3987 65.5249 23.5863 65.0633 21.7389C64.7906 20.2478 64.3577 18.7906 63.772 17.3926C63.1595 16.0717 62.6356 14.9796 61.4107 14.2269C60.5444 13.7044 59.5437 13.4479 58.5328 13.489C58.7173 13.489 58.8796 13.489 58.9829 13.489C60.1656 13.5402 61.2899 14.0172 62.1486 14.832C62.9164 15.6773 63.3878 16.7498 63.4916 17.887C63.5955 18.599 63.5955 19.3223 63.4916 20.0343C63.071 22.7941 61.7575 25.8269 60.6285 28.3579C59.4995 30.889 58.9756 32.2394 58.5181 33.2577C58.8721 34.0753 59.2967 34.8605 59.7873 35.6042C60.1489 36.1577 61.0934 37.5523 61.6689 38.3935C62.857 40.1424 63.4473 41.0131 63.8089 41.5075C65.3562 43.6494 67.2848 45.488 69.4982 46.9312C71.1758 47.9889 73.0046 48.7851 74.9218 49.2925C74.9563 58.9887 74.9907 68.6824 75.0252 78.3736C75.0556 78.584 75.1311 78.7854 75.2465 78.964C75.4097 79.1966 75.6311 79.3823 75.8885 79.5026C76.7224 79.9011 100.527 79.5838 102.505 79.5543C102.853 79.4832 103.175 79.3172 103.435 79.0746C103.707 78.8219 103.901 78.4968 103.996 78.1375L104.062 65.6742C104.109 65.4154 104.251 65.1836 104.46 65.0248C104.695 64.8837 104.971 64.8265 105.243 64.8624C105.455 64.8577 105.664 64.9113 105.848 65.0174C106.224 65.2831 106.202 65.9324 106.202 66.1243C106.202 67.0983 106.202 71.7472 106.158 78.1522C106.204 78.7835 106.385 79.3975 106.689 79.9528C107.01 80.5004 107.43 80.9834 107.929 81.3769C108.571 81.9994 109.353 82.4598 110.209 82.7199C110.853 82.9083 111.53 82.9536 112.194 82.8527C112.88 82.7269 113.529 82.4523 114.098 82.0484C114.665 81.6703 115.164 81.1988 115.573 80.6538C115.989 80.0874 116.296 79.4496 116.481 78.7721V63.8441C116.536 62.8883 116.474 61.9293 116.297 60.9884Z" fill="#00ACE8"/>
<path d="M63.4769 20.0417C63.5807 19.3297 63.5807 18.6064 63.4769 17.8944C63.3731 16.7571 62.9016 15.6847 62.1339 14.8394C61.2752 14.0246 60.1509 13.5476 58.9682 13.4964C58.8649 13.4964 58.7026 13.4964 58.5181 13.4964C58.3336 13.4964 58.1713 13.4964 58.068 13.4964C56.8853 13.5476 55.761 14.0246 54.9023 14.8394C54.1318 15.6829 53.6599 16.7563 53.5593 17.8944C53.4555 18.6064 53.4555 19.3297 53.5593 20.0417C53.9652 22.7941 55.2934 25.79 56.4077 28.3579C57.5219 30.9259 58.0532 32.2394 58.5181 33.2577C58.9756 32.2394 59.5586 30.83 60.6285 28.3579C61.6985 25.8859 63.071 22.7941 63.4769 20.0417Z" fill="#FF4D4F"/>
<path d="M54.0533 63.1505V55.978H57.1009V74.3741H54.0533V66.2202H48.7772V74.3741H45.7075V55.978H48.7772V63.1505H54.0533Z" fill="#00ACE8"/>
<path d="M67.0188 66.2423L71.188 74.3594H67.7568L63.8163 66.7441H62.4954V74.3741H59.4331V55.978H64.7903C66.2171 55.9799 67.585 56.5471 68.5946 57.5553C69.6042 58.5634 70.1732 59.9306 70.1771 61.3573C70.1734 62.3885 69.8739 63.3969 69.314 64.2628C68.7542 65.1287 67.9576 65.8157 67.0188 66.2423ZM64.8051 63.6744C65.1199 63.6922 65.435 63.6455 65.7311 63.5373C66.0273 63.4291 66.2982 63.2616 66.5273 63.045C66.7565 62.8284 66.939 62.5674 67.0638 62.2778C67.1885 61.9883 67.2529 61.6763 67.2529 61.361C67.2529 61.0457 67.1885 60.7338 67.0638 60.4442C66.939 60.1547 66.7565 59.8936 66.5273 59.6771C66.2982 59.4605 66.0273 59.293 65.7311 59.1848C65.435 59.0765 65.1199 59.0299 64.8051 59.0477H62.4954V63.6744H64.8051Z" fill="#00ACE8"/>
<path d="M24.2346 83.908H27.2896L29.0901 99.8616H26.4262L25.2824 89.7596L22.2791 99.8616H20.4344L17.4827 89.7596L16.302 99.8616H13.6382L15.4387 83.908H18.4936L21.3641 93.6189L24.2346 83.908Z" fill="#00ACE8"/>
<path d="M36.6093 87.9001C37.3939 87.9011 38.1706 88.0567 38.895 88.358C39.6194 88.6594 40.2772 89.1006 40.831 89.6564C41.3847 90.2122 41.8235 90.8717 42.1222 91.5972C42.4208 92.3227 42.5736 93.1 42.5716 93.8846V99.8616H39.9299V98.8802C38.9514 99.5466 37.7932 99.8992 36.6093 99.8911C35.0595 99.8367 33.5913 99.1828 32.5141 98.0671C31.437 96.9514 30.835 95.4612 30.835 93.9104C30.835 92.3596 31.437 90.8693 32.5141 89.7537C33.5913 88.638 35.0595 87.9841 36.6093 87.9296V87.9001ZM36.6093 97.2052C37.1571 97.2073 37.697 97.0743 38.181 96.8178C38.6651 96.5612 39.0783 96.1892 39.3841 95.7346C39.6898 95.2801 39.8786 94.7571 39.9337 94.2121C39.9889 93.667 39.9086 93.1168 39.7 92.6103C39.4915 92.1037 39.1611 91.6565 38.7383 91.3082C38.3154 90.96 37.8131 90.7215 37.2759 90.614C36.7388 90.5064 36.1834 90.5332 35.659 90.6918C35.1347 90.8504 34.6576 91.136 34.2701 91.5232C33.9535 91.8286 33.703 92.1957 33.5341 92.6019C33.3653 93.0081 33.2818 93.4447 33.2887 93.8846C33.2964 94.7628 33.6487 95.603 34.2698 96.2241C34.8909 96.8451 35.731 97.1974 36.6093 97.2052Z" fill="#00ACE8"/>
<path d="M53.1311 89.3685C53.6031 89.8243 53.9774 90.3715 54.2311 90.9766C54.4848 91.5818 54.6127 92.2322 54.6069 92.8884V99.8617H51.9504V92.8884C51.9554 92.581 51.8963 92.2759 51.7769 91.9926C51.6575 91.7093 51.4803 91.4539 51.2568 91.2428C51.0474 91.0211 50.7944 90.8451 50.5138 90.7257C50.2332 90.6064 49.9309 90.5463 49.626 90.5492C49.3204 90.5421 49.0169 90.6003 48.7357 90.7199C48.4545 90.8396 48.202 91.0178 47.9952 91.2428C47.7716 91.4539 47.5945 91.7093 47.4751 91.9926C47.3557 92.2759 47.2966 92.581 47.3016 92.8884V99.8617H44.6377V92.8884C44.6416 91.5666 45.1684 90.3001 46.103 89.3654C47.0377 88.4308 48.3042 87.904 49.626 87.9001C50.2798 87.8905 50.9286 88.016 51.5317 88.2687C52.1348 88.5214 52.6793 88.8958 53.1311 89.3685Z" fill="#00ACE8"/>
<path d="M62.355 87.9001C63.142 87.8962 63.922 88.0483 64.6498 88.3477C65.3776 88.647 66.0389 89.0877 66.5954 89.6442C67.1519 90.2007 67.5925 90.862 67.8919 91.5898C68.1913 92.3176 68.3434 93.0976 68.3395 93.8846V99.8617H65.6756V98.8802C64.6971 99.5466 63.5389 99.8992 62.355 99.8912C60.7722 99.8834 59.2564 99.2512 58.1372 98.1319C57.0179 97.0127 56.3857 95.4969 56.3779 93.9141C56.3818 92.3294 57.0126 90.8106 58.1324 89.6893C59.2523 88.5681 60.7703 87.9355 62.355 87.9296V87.9001ZM62.355 97.2052C63.1274 97.2107 63.8778 96.948 64.478 96.4619C65.0782 95.9758 65.4912 95.2964 65.6463 94.5397C65.8014 93.7831 65.6891 92.996 65.3286 92.3129C64.968 91.6299 64.3815 91.0931 63.6693 90.7943C62.957 90.4954 62.1632 90.4531 61.4231 90.6744C60.6831 90.8957 60.0429 91.367 59.6117 92.0079C59.1805 92.6487 58.985 93.4193 59.0587 94.1882C59.1325 94.957 59.4707 95.6765 60.0158 96.2237C60.3175 96.5391 60.6809 96.7889 61.0833 96.9578C61.4858 97.1266 61.9186 97.2108 62.355 97.2052Z" fill="#00ACE8"/>
<path d="M76.1612 87.9001C76.9475 87.8971 77.7267 88.05 78.4537 88.3498C79.1807 88.6496 79.8411 89.0904 80.3968 89.6468C80.9525 90.2032 81.3925 90.8641 81.6914 91.5915C81.9903 92.3188 82.1422 93.0982 82.1383 93.8845V98.6072C82.1422 99.3935 81.9903 100.173 81.6914 100.9C81.3925 101.628 80.9525 102.289 80.3968 102.845C79.8411 103.401 79.1807 103.842 78.4537 104.142C77.7267 104.442 76.9475 104.595 76.1612 104.592C75.1911 104.592 74.2357 104.356 73.377 103.905C72.5183 103.454 71.7821 102.8 71.2319 102.002L73.4457 100.526C73.741 100.978 74.1481 101.347 74.6277 101.597C75.1073 101.846 75.643 101.968 76.1833 101.95C77.0184 101.952 77.8227 101.635 78.4327 101.065C79.0428 100.495 79.4126 99.7135 79.467 98.8802C78.5675 99.4774 77.523 99.8197 76.4445 99.8709C75.366 99.9221 74.2937 99.6802 73.3417 99.1709C72.3896 98.6615 71.5933 97.9038 71.0374 96.9782C70.4814 96.0527 70.1865 94.9938 70.1841 93.914C70.188 92.3281 70.8197 90.8082 71.9412 89.6867C73.0627 88.5652 74.5826 87.9335 76.1685 87.9296L76.1612 87.9001ZM76.1612 97.2051C76.9332 97.2089 77.6827 96.9448 78.2818 96.4577C78.8808 95.9706 79.2923 95.2908 79.4461 94.5342C79.5999 93.7776 79.4865 92.991 79.1251 92.3087C78.7637 91.6264 78.1769 91.0906 77.4646 90.7927C76.7523 90.4948 75.9587 90.4533 75.2192 90.6751C74.4797 90.897 73.84 91.3685 73.4093 92.0094C72.9787 92.6502 72.7837 93.4205 72.8576 94.1891C72.9315 94.9576 73.2697 95.6767 73.8146 96.2237C74.1169 96.5403 74.4814 96.7909 74.8852 96.9598C75.2891 97.1287 75.7235 97.2123 76.1612 97.2051Z" fill="#00ACE8"/>
<path d="M94.0484 89.6489C94.7596 90.3727 95.2781 91.2632 95.5565 92.239C95.8349 93.2148 95.8644 94.2448 95.6423 95.2349H86.7873C86.9973 95.7101 87.3163 96.1291 87.7185 96.4579C88.1207 96.7868 88.5947 97.0162 89.1022 97.1276C89.6096 97.239 90.1361 97.2293 90.6391 97.0991C91.142 96.969 91.6072 96.7222 91.997 96.3787L94.2107 97.8988C93.6685 98.4989 93.0097 98.9822 92.2745 99.3193C91.5393 99.6565 90.7432 99.8403 89.9346 99.8596C89.1261 99.879 88.3221 99.7334 87.5716 99.4318C86.8212 99.1302 86.14 98.6789 85.5698 98.1054C84.4484 96.984 83.8184 95.463 83.8184 93.8772C83.8184 92.2913 84.4484 90.7703 85.5698 89.6489C86.6911 88.5275 88.2121 87.8975 89.798 87.8975C91.3839 87.8975 92.9048 88.5275 94.0262 89.6489H94.0484ZM92.8825 92.6006C92.6269 91.9999 92.2003 91.4876 91.6558 91.1275C91.1113 90.7675 90.4729 90.5755 89.8201 90.5755C89.1673 90.5755 88.529 90.7675 87.9844 91.1275C87.4399 91.4876 87.0134 91.9999 86.7578 92.6006H92.8825Z" fill="#00ACE8"/>
<path d="M97.3171 99.8616V91.8774C97.3073 91.3524 97.4072 90.8312 97.6105 90.347C97.8138 89.8629 98.116 89.4266 98.4977 89.066C98.862 88.6902 99.2994 88.3929 99.7829 88.1924C100.266 87.9918 100.786 87.8924 101.309 87.9001H103.353L102.541 90.5492H101.309C100.956 90.5492 100.618 90.6889 100.367 90.9378C100.117 91.1866 99.9755 91.5245 99.9735 91.8774V99.8616H97.3171Z" fill="#00ACE8"/>
</svg>
