<svg width="158" height="142" viewBox="0 0 158 142" fill="none" xmlns="http://www.w3.org/2000/svg">
<path d="M79.51 1.39C79.51 0.622324 78.8877 0 78.12 0C77.3523 0 76.73 0.622324 76.73 1.39V7.92C76.73 8.68768 77.3523 9.31 78.12 9.31C78.8877 9.31 79.51 8.68768 79.51 7.92V1.39Z" fill="black"/>
<path d="M64.5487 7.10874C64.0059 6.56591 63.1258 6.56591 62.583 7.10874C62.0401 7.65156 62.0401 8.53166 62.583 9.07449L67.2004 13.6919C67.7432 14.2347 68.6233 14.2347 69.1661 13.6919C69.709 13.1491 69.709 12.269 69.1661 11.7261L64.5487 7.10874Z" fill="black"/>
<path d="M87.0558 11.7284C86.513 12.2712 86.513 13.1513 87.0558 13.6941C87.5986 14.237 88.4787 14.237 89.0216 13.6941L93.639 9.07672C94.1818 8.53389 94.1818 7.65379 93.639 7.11096C93.0962 6.56813 92.216 6.56813 91.6732 7.11095L87.0558 11.7284Z" fill="black"/>
<path d="M35.25 51.45C44.4676 51.45 51.94 43.9776 51.94 34.76C51.94 25.5424 44.4676 18.07 35.25 18.07C26.0324 18.07 18.56 25.5424 18.56 34.76C18.56 43.9776 26.0324 51.45 35.25 51.45Z" fill="#16C098"/>
<path d="M71.89 27.16C71.7493 26.1951 71.7493 25.2149 71.89 24.25C72.0263 22.7078 72.6658 21.2531 73.71 20.11C74.8737 19.0058 76.3973 18.3594 78 18.29C78.14 18.29 78.36 18.29 78.61 18.29C77.2401 18.2342 75.884 18.5819 74.71 19.29C73.05 20.29 72.34 21.79 71.51 23.58C70.7163 25.4746 70.1296 27.4494 69.76 29.47C69.1346 31.9736 68.3326 34.4298 67.36 36.82C66.1138 39.7275 64.4274 42.4257 62.36 44.82C60.17 47.38 53 56.08 44.16 56.54C43.22 56.59 36.83 56.83 33.54 56.83C32.6678 56.8282 31.7963 56.8783 30.93 56.98C29.7754 57.111 28.6322 57.3283 27.51 57.63C24.5979 58.3032 21.7504 59.2301 19 60.4C14.7891 62.1697 11.0073 64.8228 7.91001 68.18C4.80001 71.6 3.37001 74.8 1.52001 79C0.97244 80.1814 0.566295 81.4233 0.310011 82.7C0.0489439 83.9556 -0.0551863 85.2387 1.11237e-05 86.52V106.76C0.246 107.68 0.663297 108.545 1.23001 109.31C1.78502 110.049 2.46128 110.688 3.23001 111.2C4.00011 111.747 4.88074 112.119 5.81001 112.29C6.70908 112.427 7.62717 112.365 8.50001 112.11C9.65998 111.757 10.7192 111.134 11.59 110.29C12.2651 109.757 12.8349 109.102 13.27 108.36C13.6817 107.607 13.9272 106.775 13.99 105.92C13.99 97.24 13.99 90.92 13.93 89.62C13.93 89.36 13.93 88.48 14.41 88.12C14.659 87.9763 14.9426 87.9036 15.23 87.91C15.5981 87.8613 15.9718 87.9388 16.29 88.13C16.5741 88.3452 16.7668 88.6593 16.83 89.01L17 105.89C17.1276 106.377 17.3912 106.817 17.76 107.16C18.112 107.489 18.5481 107.714 19.02 107.81C21.69 107.81 53.96 108.28 55.09 107.74C55.4389 107.577 55.7389 107.325 55.96 107.01C56.1172 106.769 56.2165 106.495 56.25 106.21L56.4 66.8C58.9982 66.1124 61.4765 65.0334 63.75 63.6C66.7496 61.6479 69.3606 59.1556 71.45 56.25C71.95 55.58 72.75 54.4 74.36 52.03C75.14 50.89 76.42 49.03 76.91 48.25C77.571 47.2398 78.1463 46.1761 78.63 45.07C78 43.69 77.22 41.78 75.77 38.43C74.32 35.08 72.44 30.89 71.89 27.16Z" fill="#16C098"/>
<path d="M121.97 51.45C131.188 51.45 138.66 43.9776 138.66 34.76C138.66 25.5424 131.188 18.07 121.97 18.07C112.752 18.07 105.28 25.5424 105.28 34.76C105.28 43.9776 112.752 51.45 121.97 51.45Z" fill="#16C098"/>
<path d="M156.91 82.65C156.65 81.3904 156.244 80.1655 155.7 79C153.84 74.85 152.42 71.65 149.31 68.23C146.213 64.8728 142.431 62.2197 138.22 60.45C135.47 59.2801 132.622 58.3532 129.71 57.68C128.588 57.3792 127.444 57.162 126.29 57.03C125.424 56.9286 124.552 56.8785 123.68 56.88C120.39 56.88 114 56.64 113.06 56.59C104.26 56.13 97.06 47.43 94.88 44.81C92.8126 42.4157 91.1262 39.7175 89.88 36.81C88.9074 34.4197 88.1054 31.9636 87.48 29.46C87.1104 27.4394 86.5237 25.4646 85.73 23.57C84.9 21.78 84.19 20.3 82.53 19.28C81.356 18.5719 79.9999 18.2242 78.63 18.28C78.88 18.28 79.1 18.28 79.24 18.28C80.8427 18.3494 82.3663 18.9957 83.53 20.1C84.5704 21.2455 85.2093 22.6989 85.35 24.24C85.4907 25.2049 85.4907 26.1851 85.35 27.15C84.78 30.89 83 35 81.47 38.43C79.94 41.86 79.23 43.69 78.61 45.07C79.0897 46.178 79.6652 47.2421 80.33 48.25C80.82 49 82.1 50.89 82.88 52.03C84.49 54.4 85.29 55.58 85.78 56.25C87.8769 59.1526 90.4905 61.6442 93.49 63.6C95.7635 65.0333 98.2418 66.1124 100.84 66.8C100.887 79.94 100.933 93.0767 100.98 106.21C101.021 106.495 101.124 106.768 101.28 107.01C101.501 107.325 101.801 107.577 102.15 107.74C103.28 108.28 135.54 107.85 138.22 107.81C138.692 107.714 139.128 107.489 139.48 107.16C139.849 106.817 140.112 106.377 140.24 105.89L140.33 89C140.393 88.6493 140.586 88.3352 140.87 88.12C141.188 87.9288 141.562 87.8512 141.93 87.9C142.217 87.8936 142.501 87.9662 142.75 88.11C143.26 88.47 143.23 89.35 143.23 89.61C143.23 90.93 143.23 97.23 143.17 105.91C143.233 106.765 143.478 107.597 143.89 108.35C144.325 109.092 144.895 109.747 145.57 110.28C146.441 111.124 147.5 111.747 148.66 112.1C149.533 112.355 150.451 112.417 151.35 112.28C152.279 112.109 153.16 111.737 153.93 111.19C154.699 110.678 155.375 110.039 155.93 109.3C156.493 108.533 156.91 107.668 157.16 106.75V86.52C157.234 85.2246 157.15 83.9251 156.91 82.65Z" fill="#16C098"/>
<path d="M85.33 27.16C85.4707 26.1951 85.4707 25.2149 85.33 24.25C85.1894 22.7089 84.5504 21.2556 83.51 20.11C82.3463 19.0058 80.8227 18.3594 79.22 18.29C79.08 18.29 78.86 18.29 78.61 18.29C78.36 18.29 78.14 18.29 78 18.29C76.3973 18.3594 74.8737 19.0058 73.71 20.11C72.6658 21.2531 72.0263 22.7078 71.89 24.25C71.7492 25.2149 71.7492 26.1951 71.89 27.16C72.44 30.89 74.24 34.95 75.75 38.43C77.26 41.91 77.98 43.69 78.61 45.07C79.23 43.69 80.02 41.78 81.47 38.43C82.92 35.08 84.78 30.89 85.33 27.16Z" fill="black"/>
<path d="M72.56 85.58V75.86H76.69V100.79H72.56V89.74H65.41V100.79H61.25V75.86H65.41V85.58H72.56Z" fill="#16C098"/>
<path d="M90.13 89.77L95.78 100.77H91.13L85.79 90.45H84V100.79H79.85V75.86H87.11C89.0435 75.8626 90.8973 76.6312 92.2654 77.9975C93.6336 79.3638 94.4047 81.2165 94.41 83.15C94.405 84.5473 93.9991 85.9139 93.2404 87.0874C92.4817 88.2608 91.4022 89.1919 90.13 89.77ZM87.13 86.29C87.5566 86.3141 87.9836 86.2509 88.3849 86.1042C88.7862 85.9576 89.1534 85.7305 89.4639 85.4371C89.7744 85.1436 90.0218 84.7898 90.1908 84.3974C90.3599 84.005 90.4471 83.5823 90.4471 83.155C90.4471 82.7277 90.3599 82.3049 90.1908 81.9125C90.0218 81.5201 89.7744 81.1664 89.4639 80.8729C89.1534 80.5794 88.7862 80.3524 88.3849 80.2057C87.9836 80.0591 87.5566 79.9959 87.13 80.02H84V86.29H87.13Z" fill="#16C098"/>
<path d="M32.15 113.71H36.29L38.73 135.33H35.12L33.57 121.64L29.5 135.33H27L23 121.64L21.4 135.33H17.79L20.23 113.71H24.37L28.26 126.87L32.15 113.71Z" fill="#16C098"/>
<path d="M48.92 119.12C49.9832 119.121 51.0358 119.332 52.0175 119.741C52.9991 120.149 53.8907 120.747 54.6411 121.5C55.3915 122.253 55.9861 123.147 56.3909 124.13C56.7956 125.113 57.0026 126.167 57 127.23V135.33H53.42V134C52.0939 134.903 50.5243 135.381 48.92 135.37C46.8197 135.296 44.83 134.41 43.3703 132.898C41.9106 131.386 41.0947 129.367 41.0947 127.265C41.0947 125.163 41.9106 123.144 43.3703 121.632C44.83 120.12 46.8197 119.234 48.92 119.16V119.12ZM48.92 131.73C49.6624 131.733 50.394 131.553 51.0499 131.205C51.7059 130.857 52.2659 130.353 52.6802 129.737C53.0946 129.121 53.3505 128.412 53.4252 127.674C53.4999 126.935 53.3911 126.19 53.1085 125.503C52.8259 124.817 52.3781 124.211 51.8051 123.739C51.232 123.267 50.5513 122.944 49.8234 122.798C49.0954 122.652 48.3428 122.688 47.6322 122.903C46.9216 123.118 46.2751 123.505 45.75 124.03C45.3209 124.444 44.9814 124.941 44.7526 125.492C44.5238 126.042 44.4106 126.634 44.42 127.23C44.4304 128.42 44.9079 129.559 45.7495 130.4C46.5912 131.242 47.7297 131.72 48.92 131.73Z" fill="#16C098"/>
<path d="M71.31 121.11C71.9497 121.728 72.4569 122.469 72.8008 123.289C73.1446 124.109 73.3179 124.991 73.31 125.88V135.33H69.71V125.88C69.7168 125.463 69.6367 125.05 69.4748 124.666C69.313 124.282 69.0729 123.936 68.77 123.65C68.4862 123.35 68.1435 123.111 67.7632 122.949C67.3829 122.787 66.9732 122.706 66.56 122.71C66.1459 122.7 65.7346 122.779 65.3535 122.941C64.9724 123.103 64.6303 123.345 64.35 123.65C64.047 123.936 63.807 124.282 63.6452 124.666C63.4833 125.05 63.4032 125.463 63.41 125.88V135.33H59.8V125.88C59.8053 124.089 60.5192 122.372 61.7858 121.106C63.0524 119.839 64.7687 119.125 66.56 119.12C67.446 119.107 68.3252 119.277 69.1426 119.62C69.9599 119.962 70.6978 120.469 71.31 121.11Z" fill="#16C098"/>
<path d="M83.81 119.12C84.8765 119.115 85.9335 119.321 86.9198 119.727C87.9062 120.132 88.8023 120.729 89.5565 121.484C90.3106 122.238 90.9078 123.134 91.3135 124.12C91.7192 125.107 91.9253 126.164 91.92 127.23V135.33H88.31V134C86.9839 134.903 85.4143 135.381 83.81 135.37C81.665 135.359 79.6108 134.503 78.0941 132.986C76.5773 131.469 75.7205 129.415 75.71 127.27C75.7153 125.122 76.5701 123.064 78.0877 121.545C79.6053 120.025 81.6625 119.168 83.81 119.16V119.12ZM83.81 131.73C84.8567 131.737 85.8736 131.381 86.687 130.723C87.5005 130.064 88.0601 129.143 88.2703 128.118C88.4805 127.092 88.3283 126.026 87.8397 125.1C87.3511 124.174 86.5563 123.447 85.5911 123.042C84.6259 122.637 83.55 122.58 82.5472 122.88C81.5443 123.18 80.6767 123.818 80.0923 124.687C79.508 125.555 79.2431 126.599 79.343 127.641C79.4429 128.683 79.9013 129.658 80.64 130.4C81.0489 130.827 81.5413 131.166 82.0867 131.395C82.632 131.624 83.2187 131.738 83.81 131.73Z" fill="#16C098"/>
<path d="M102.52 119.12C103.586 119.116 104.642 119.323 105.627 119.729C106.612 120.136 107.507 120.733 108.26 121.487C109.013 122.241 109.609 123.137 110.014 124.122C110.419 125.108 110.625 126.164 110.62 127.23V133.63C110.625 134.696 110.419 135.752 110.014 136.737C109.609 137.723 109.013 138.619 108.26 139.373C107.507 140.127 106.612 140.724 105.627 141.131C104.642 141.537 103.586 141.744 102.52 141.74C101.205 141.74 99.9106 141.421 98.7469 140.809C97.5832 140.198 96.5856 139.313 95.84 138.23L98.84 136.23C99.2402 136.844 99.792 137.343 100.442 137.682C101.092 138.02 101.818 138.184 102.55 138.16C103.682 138.162 104.772 137.734 105.598 136.961C106.425 136.188 106.926 135.129 107 134C105.781 134.809 104.365 135.273 102.904 135.343C101.442 135.412 99.9893 135.084 98.6991 134.394C97.4089 133.704 96.3297 132.677 95.5763 131.423C94.8229 130.168 94.4233 128.733 94.42 127.27C94.4253 125.121 95.2814 123.061 96.8012 121.541C98.321 120.021 100.381 119.165 102.53 119.16L102.52 119.12ZM102.52 131.73C103.566 131.735 104.582 131.377 105.394 130.717C106.206 130.057 106.763 129.136 106.972 128.11C107.18 127.085 107.026 126.019 106.537 125.095C106.047 124.17 105.252 123.444 104.286 123.04C103.321 122.636 102.246 122.58 101.243 122.881C100.241 123.181 99.3744 123.82 98.7908 124.689C98.2072 125.557 97.9429 126.601 98.043 127.643C98.1432 128.684 98.6016 129.659 99.34 130.4C99.7496 130.829 100.244 131.169 100.791 131.398C101.338 131.626 101.927 131.74 102.52 131.73Z" fill="#16C098"/>
<path d="M126.76 121.49C127.724 122.471 128.426 123.678 128.804 125C129.181 126.322 129.221 127.718 128.92 129.06H116.92C117.205 129.704 117.637 130.272 118.182 130.717C118.727 131.163 119.369 131.474 120.057 131.625C120.745 131.776 121.458 131.763 122.14 131.586C122.821 131.41 123.452 131.076 123.98 130.61L126.98 132.67C126.245 133.483 125.352 134.138 124.356 134.595C123.36 135.052 122.281 135.301 121.185 135.327C120.089 135.354 119 135.156 117.983 134.748C116.966 134.339 116.043 133.727 115.27 132.95C113.75 131.43 112.897 129.369 112.897 127.22C112.897 125.071 113.75 123.01 115.27 121.49C116.79 119.97 118.851 119.117 121 119.117C123.149 119.117 125.21 119.97 126.73 121.49H126.76ZM125.18 125.49C124.834 124.676 124.256 123.982 123.518 123.494C122.78 123.006 121.915 122.746 121.03 122.746C120.145 122.746 119.28 123.006 118.542 123.494C117.804 123.982 117.226 124.676 116.88 125.49H125.18Z" fill="#16C098"/>
<path d="M131.19 135.33V124.51C131.177 123.799 131.312 123.092 131.588 122.436C131.863 121.78 132.273 121.189 132.79 120.7C133.284 120.191 133.876 119.788 134.532 119.516C135.187 119.244 135.891 119.11 136.6 119.12H139.37L138.27 122.71H136.6C136.122 122.71 135.663 122.899 135.324 123.237C134.985 123.574 134.793 124.032 134.79 124.51V135.33H131.19Z" fill="#16C098"/>
</svg>
