<svg xmlns="http://www.w3.org/2000/svg" viewBox="0 0 157.22 141.74"><defs><style>.cls-1{fill:#ff4d4f;}.cls-2{fill:#00ace8;}</style></defs><g id="Layer_2" data-name="Layer 2"><g id="Layer_1-2" data-name="Layer 1"><rect class="cls-1" x="76.73" width="2.78" height="9.31" rx="1.39"/><rect class="cls-1" x="64.48" y="5.75" width="2.78" height="9.31" rx="1.39" transform="translate(11.94 49.62) rotate(-45)"/><rect class="cls-1" x="88.95" y="5.75" width="2.78" height="9.31" rx="1.39" transform="translate(146.87 81.64) rotate(-135)"/><circle class="cls-2" cx="35.25" cy="34.76" r="16.69"/><path class="cls-2" d="M71.89,27.16a10.08,10.08,0,0,1,0-2.91,7.06,7.06,0,0,1,1.82-4.14A6.65,6.65,0,0,1,78,18.29c.14,0,.36,0,.61,0a7,7,0,0,0-3.9,1c-1.66,1-2.37,2.5-3.2,4.29a28.53,28.53,0,0,0-1.75,5.89,54.64,54.64,0,0,1-2.4,7.35,30.82,30.82,0,0,1-5,8C60.17,47.38,53,56.08,44.16,56.54c-.94.05-7.33.29-10.62.29a22,22,0,0,0-2.61.15,23.28,23.28,0,0,0-3.42.65A51.21,51.21,0,0,0,19,60.4,31.91,31.91,0,0,0,7.91,68.18C4.8,71.6,3.37,74.8,1.52,79a16.54,16.54,0,0,0-1.21,3.7A15.49,15.49,0,0,0,0,86.52v20.24a7.57,7.57,0,0,0,1.23,2.55,8.17,8.17,0,0,0,2,1.89,6.47,6.47,0,0,0,2.58,1.09,6.24,6.24,0,0,0,2.69-.18,7.63,7.63,0,0,0,3.09-1.82,6.92,6.92,0,0,0,1.68-1.93,6,6,0,0,0,.72-2.44c0-8.68,0-15-.06-16.3,0-.26,0-1.14.48-1.5a1.57,1.57,0,0,1,.82-.21,1.64,1.64,0,0,1,1.06.22,1.42,1.42,0,0,1,.54.88L17,105.89a2.65,2.65,0,0,0,.76,1.27,2.61,2.61,0,0,0,1.26.65c2.67,0,34.94.47,36.07-.07a2.2,2.2,0,0,0,.87-.73,1.86,1.86,0,0,0,.29-.8l.15-39.41a26.49,26.49,0,0,0,7.35-3.2,28.9,28.9,0,0,0,7.7-7.35c.5-.67,1.3-1.85,2.91-4.22.78-1.14,2.06-3,2.55-3.78a21.65,21.65,0,0,0,1.72-3.18c-.63-1.38-1.41-3.29-2.86-6.64S72.44,30.89,71.89,27.16Z"/><circle class="cls-2" cx="121.97" cy="34.76" r="16.69"/><path class="cls-2" d="M156.91,82.65A16.54,16.54,0,0,0,155.7,79c-1.86-4.15-3.28-7.35-6.39-10.77a31.91,31.91,0,0,0-11.09-7.78,51.21,51.21,0,0,0-8.51-2.77,23.54,23.54,0,0,0-3.42-.65,22.14,22.14,0,0,0-2.61-.15c-3.29,0-9.68-.24-10.62-.29-8.8-.46-16-9.16-18.18-11.78a30.82,30.82,0,0,1-5-8,54.64,54.64,0,0,1-2.4-7.35,28.53,28.53,0,0,0-1.75-5.89c-.83-1.79-1.54-3.27-3.2-4.29a7,7,0,0,0-3.9-1c.25,0,.47,0,.61,0a6.65,6.65,0,0,1,4.29,1.82,7.12,7.12,0,0,1,1.82,4.14,10.08,10.08,0,0,1,0,2.91C84.78,30.89,83,35,81.47,38.43s-2.24,5.26-2.86,6.64a20.75,20.75,0,0,0,1.72,3.18c.49.75,1.77,2.64,2.55,3.78,1.61,2.37,2.41,3.55,2.9,4.22a29.16,29.16,0,0,0,7.71,7.35,26.49,26.49,0,0,0,7.35,3.2q.07,19.71.14,39.41a2,2,0,0,0,.3.8,2.2,2.2,0,0,0,.87.73c1.13.54,33.39.11,36.07.07a2.61,2.61,0,0,0,1.26-.65,2.65,2.65,0,0,0,.76-1.27L140.33,89a1.42,1.42,0,0,1,.54-.88,1.64,1.64,0,0,1,1.06-.22,1.57,1.57,0,0,1,.82.21c.51.36.48,1.24.48,1.5,0,1.32,0,7.62-.06,16.3a6,6,0,0,0,.72,2.44,6.92,6.92,0,0,0,1.68,1.93,7.63,7.63,0,0,0,3.09,1.82,6.24,6.24,0,0,0,2.69.18,6.47,6.47,0,0,0,2.58-1.09,8.17,8.17,0,0,0,2-1.89,7.77,7.77,0,0,0,1.23-2.55V86.52A16,16,0,0,0,156.91,82.65Z"/><path class="cls-1" d="M85.33,27.16a10.08,10.08,0,0,0,0-2.91,7.12,7.12,0,0,0-1.82-4.14,6.65,6.65,0,0,0-4.29-1.82c-.14,0-.36,0-.61,0s-.47,0-.61,0a6.65,6.65,0,0,0-4.29,1.82,7.06,7.06,0,0,0-1.82,4.14,10.08,10.08,0,0,0,0,2.91c.55,3.73,2.35,7.79,3.86,11.27s2.23,5.26,2.86,6.64c.62-1.38,1.41-3.29,2.86-6.64S84.78,30.89,85.33,27.16Z"/><path class="cls-2" d="M72.56,85.58V75.86h4.13v24.93H72.56V89.74H65.41v11.05H61.25V75.86h4.16v9.72Z"/><path class="cls-2" d="M90.13,89.77l5.65,11H91.13L85.79,90.45H84v10.34H79.85V75.86h7.26a7.31,7.31,0,0,1,7.3,7.29A7.3,7.3,0,0,1,90.13,89.77Zm-3-3.48a3.14,3.14,0,1,0,0-6.27H84v6.27Z"/><path class="cls-2" d="M32.15,113.71h4.14l2.44,21.62H35.12l-1.55-13.69L29.5,135.33H27l-4-13.69L21.4,135.33H17.79l2.44-21.62h4.14l3.89,13.16Z"/><path class="cls-2" d="M48.92,119.12A8.09,8.09,0,0,1,57,127.23v8.1H53.42V134a7.9,7.9,0,0,1-4.5,1.37,8.11,8.11,0,0,1,0-16.21Zm0,12.61a4.51,4.51,0,1,0-3.17-7.7,4.35,4.35,0,0,0-1.33,3.2,4.54,4.54,0,0,0,4.5,4.5Z"/><path class="cls-2" d="M71.31,121.11a6.55,6.55,0,0,1,2,4.77v9.45H69.71v-9.45a3,3,0,0,0-.94-2.23,3,3,0,0,0-2.21-.94,2.91,2.91,0,0,0-2.21.94,3,3,0,0,0-.94,2.23v9.45H59.8v-9.45a6.78,6.78,0,0,1,6.76-6.76A6.44,6.44,0,0,1,71.31,121.11Z"/><path class="cls-2" d="M83.81,119.12a8.07,8.07,0,0,1,8.11,8.11v8.1H88.31V134a7.9,7.9,0,0,1-4.5,1.37,8.14,8.14,0,0,1-8.1-8.1,8.13,8.13,0,0,1,8.1-8.11Zm0,12.61a4.52,4.52,0,1,0-3.17-1.33A4.31,4.31,0,0,0,83.81,131.73Z"/><path class="cls-2" d="M102.52,119.12a8.07,8.07,0,0,1,8.1,8.11v6.4a8.07,8.07,0,0,1-8.1,8.11,8.11,8.11,0,0,1-6.68-3.51l3-2a4.26,4.26,0,0,0,3.71,1.93A4.45,4.45,0,0,0,107,134a8.1,8.1,0,0,1-12.58-6.73,8.13,8.13,0,0,1,8.11-8.11Zm0,12.61a4.52,4.52,0,1,0-3.18-1.33A4.3,4.3,0,0,0,102.52,131.73Z"/><path class="cls-2" d="M126.76,121.49a8.23,8.23,0,0,1,2.16,7.57h-12a4.48,4.48,0,0,0,7.06,1.55l3,2.06a8.07,8.07,0,0,1-11.71.28,8.1,8.1,0,0,1,11.46-11.46Zm-1.58,4a4.51,4.51,0,0,0-8.3,0Z"/><path class="cls-2" d="M131.19,135.33V124.51a5.11,5.11,0,0,1,1.6-3.81,5.2,5.2,0,0,1,3.81-1.58h2.77l-1.1,3.59H136.6a1.81,1.81,0,0,0-1.81,1.8v10.82Z"/></g></g></svg>