<svg width="68" height="68" viewBox="0 0 68 68" fill="none" xmlns="http://www.w3.org/2000/svg">
<rect width="68" height="68" rx="34" fill="#BFBFBF"/>
<path d="M19.543 42.5V40.1914L28.1328 28.6016V28.5078H19.7422V25.5898H32.3633V27.8867L23.8086 39.4883V39.5703H32.5977V42.5H19.543ZM38.5859 28.3555V33.7461H41.6328C43.4141 33.7461 44.457 32.7266 44.457 31.0508C44.457 29.4102 43.3555 28.3555 41.5977 28.3555H38.5859ZM38.5859 36.3125V42.5H35.0469V25.5898H41.9727C45.8633 25.5898 48.0898 27.6406 48.0898 30.9805C48.0898 33.1484 46.9648 35.0234 45.0195 35.7852L48.582 42.5H44.5742L41.4219 36.3125H38.5859Z" fill="white"/>
</svg>
